<svg width="100" height="100" viewBox="0 0 100 100" xmlns="http://www.w3.org/2000/svg">
  <!-- Diamond Shape -->
  <polygon points="50,10 70,30 50,90 30,30" fill="#5fb3d4" stroke="#4a9bc1" stroke-width="2"/>
  
  <!-- Inner Facets -->
  <polygon points="50,10 60,25 50,50 40,25" fill="#7bc9e5" stroke="#5fb3d4" stroke-width="1"/>
  <polygon points="40,25 50,50 30,30" fill="#4a9bc1" stroke="#3a7ba3" stroke-width="1"/>
  <polygon points="60,25 70,30 50,50" fill="#4a9bc1" stroke="#3a7ba3" stroke-width="1"/>
  <polygon points="30,30 50,50 50,90" fill="#3a7ba3" stroke="#2d5e85" stroke-width="1"/>
  <polygon points="70,30 50,90 50,50" fill="#3a7ba3" stroke="#2d5e85" stroke-width="1"/>
  
  <!-- Top Highlights -->
  <polygon points="50,10 55,20 50,35 45,20" fill="#9dd9f0" stroke="#7bc9e5" stroke-width="0.5"/>
  
  <!-- Side Highlights -->
  <polygon points="45,20 50,35 35,28" fill="#7bc9e5" opacity="0.7"/>
  <polygon points="55,20 65,28 50,35" fill="#7bc9e5" opacity="0.7"/>
  
  <!-- Bottom Shadows -->
  <polygon points="50,50 50,90 40,75" fill="#2d5e85" opacity="0.8"/>
  <polygon points="50,50 60,75 50,90" fill="#2d5e85" opacity="0.8"/>
  
  <!-- Enchantment Glow -->
  <polygon points="50,10 70,30 50,90 30,30" fill="none" stroke="#4169e1" stroke-width="2" opacity="0.8"/>
  <polygon points="50,15 65,32 50,85 35,32" fill="none" stroke="#5a7ce8" stroke-width="1" opacity="0.6"/>
  
  <!-- Sparkle Effects -->
  <circle cx="35" cy="25" r="2" fill="#4169e1" opacity="0.8">
    <animate attributeName="opacity" values="0.8;0.3;0.8" dur="2s" repeatCount="indefinite"/>
  </circle>
  <circle cx="65" cy="25" r="2" fill="#5a7ce8" opacity="0.8">
    <animate attributeName="opacity" values="0.3;0.8;0.3" dur="2s" repeatCount="indefinite"/>
  </circle>
  <circle cx="50" cy="60" r="1.5" fill="#4169e1" opacity="0.8">
    <animate attributeName="opacity" values="0.8;0.3;0.8" dur="1.5s" repeatCount="indefinite"/>
  </circle>
  
  <!-- Star sparkles -->
  <path d="M 25 40 L 26 42 L 28 42 L 26.5 43.5 L 27 46 L 25 44.5 L 23 46 L 23.5 43.5 L 22 42 L 24 42 Z" fill="#4169e1" opacity="0.6">
    <animateTransform attributeName="transform" type="rotate" values="0 25 43;360 25 43" dur="4s" repeatCount="indefinite"/>
  </path>
  <path d="M 75 40 L 76 42 L 78 42 L 76.5 43.5 L 77 46 L 75 44.5 L 73 46 L 73.5 43.5 L 72 42 L 74 42 Z" fill="#5a7ce8" opacity="0.6">
    <animateTransform attributeName="transform" type="rotate" values="360 75 43;0 75 43" dur="3s" repeatCount="indefinite"/>
  </path>
</svg> 