<svg width="100" height="100" viewBox="0 0 100 100" xmlns="http://www.w3.org/2000/svg">
  <!-- Sword Blade -->
  <rect x="45" y="10" width="10" height="60" fill="#b8c5d1" stroke="#9ca8b5" stroke-width="1"/>
  <rect x="43" y="15" width="14" height="50" fill="#d1dae3" stroke="#b8c5d1" stroke-width="1"/>
  
  <!-- Sword Edge -->
  <rect x="47" y="12" width="6" height="56" fill="#e8f0f8" stroke="#d1dae3" stroke-width="0.5"/>
  
  <!-- Sword Tip -->
  <polygon points="47,10 53,10 50,5" fill="#d1dae3" stroke="#b8c5d1" stroke-width="1"/>
  
  <!-- Cross Guard -->
  <rect x="35" y="68" width="30" height="6" fill="#8b4513" stroke="#654321" stroke-width="1"/>
  <rect x="36" y="69" width="28" height="4" fill="#a0522d" stroke="#8b4513" stroke-width="0.5"/>
  
  <!-- Handle -->
  <rect x="47" y="74" width="6" height="16" fill="#654321" stroke="#4a2c17" stroke-width="1"/>
  <rect x="48" y="75" width="4" height="14" fill="#8b4513" stroke="#654321" stroke-width="0.5"/>
  
  <!-- Pommel -->
  <circle cx="50" cy="92" r="4" fill="#4a2c17" stroke="#2d1a0a" stroke-width="1"/>
  <circle cx="50" cy="92" r="2.5" fill="#654321" stroke="#4a2c17" stroke-width="0.5"/>
  
  <!-- Enchantment Glow -->
  <rect x="45" y="10" width="10" height="60" fill="none" stroke="#4169e1" stroke-width="1" opacity="0.6"/>
  <rect x="47" y="12" width="6" height="56" fill="none" stroke="#5a7ce8" stroke-width="0.5" opacity="0.8"/>
  
  <!-- Sparkle Effects -->
  <circle cx="40" cy="25" r="1" fill="#4169e1" opacity="0.8"/>
  <circle cx="60" cy="35" r="1" fill="#5a7ce8" opacity="0.8"/>
  <circle cx="38" cy="45" r="1" fill="#4169e1" opacity="0.8"/>
  <circle cx="62" cy="55" r="1" fill="#5a7ce8" opacity="0.8"/>
  
  <!-- Star sparkles -->
  <path d="M 35 30 L 36 32 L 38 32 L 36.5 33.5 L 37 36 L 35 34.5 L 33 36 L 33.5 33.5 L 32 32 L 34 32 Z" fill="#4169e1" opacity="0.6"/>
  <path d="M 63 40 L 64 42 L 66 42 L 64.5 43.5 L 65 46 L 63 44.5 L 61 46 L 61.5 43.5 L 60 42 L 62 42 Z" fill="#5a7ce8" opacity="0.6"/>
</svg> 