<svg width="100" height="100" viewBox="0 0 100 100" xmlns="http://www.w3.org/2000/svg">
  <!-- Handle -->
  <rect x="47" y="45" width="6" height="45" fill="#654321" stroke="#4a2c17" stroke-width="1"/>
  <rect x="48" y="46" width="4" height="43" fill="#8b4513" stroke="#654321" stroke-width="0.5"/>
  
  <!-- Pickaxe Head Base -->
  <rect x="40" y="25" width="20" height="20" fill="#2a2a2a" stroke="#1a1a1a" stroke-width="1"/>
  <rect x="41" y="26" width="18" height="18" fill="#3a3a3a" stroke="#2a2a2a" stroke-width="0.5"/>
  
  <!-- Left Spike -->
  <polygon points="15,35 40,30 40,40" fill="#4a4a4a" stroke="#3a3a3a" stroke-width="1"/>
  <polygon points="16,35 38,31 38,39" fill="#5a5a5a" stroke="#4a4a4a" stroke-width="0.5"/>
  
  <!-- Right Spike -->
  <polygon points="85,35 60,30 60,40" fill="#4a4a4a" stroke="#3a3a3a" stroke-width="1"/>
  <polygon points="84,35 62,31 62,39" fill="#5a5a5a" stroke="#4a4a4a" stroke-width="0.5"/>
  
  <!-- Top Spike -->
  <polygon points="50,10 45,25 55,25" fill="#4a4a4a" stroke="#3a3a3a" stroke-width="1"/>
  <polygon points="50,12 46,24 54,24" fill="#5a5a5a" stroke="#4a4a4a" stroke-width="0.5"/>
  
  <!-- Metal Highlights -->
  <rect x="42" y="27" width="2" height="16" fill="#6a6a6a" opacity="0.8"/>
  <rect x="56" y="27" width="2" height="16" fill="#6a6a6a" opacity="0.8"/>
  
  <!-- Binding -->
  <rect x="45" y="40" width="10" height="8" fill="#8b4513" stroke="#654321" stroke-width="1"/>
  <rect x="46" y="41" width="8" height="6" fill="#a0522d" stroke="#8b4513" stroke-width="0.5"/>
  
  <!-- Enchantment Glow -->
  <rect x="40" y="25" width="20" height="20" fill="none" stroke="#4169e1" stroke-width="1" opacity="0.6"/>
  <polygon points="15,35 40,30 40,40" fill="none" stroke="#4169e1" stroke-width="1" opacity="0.6"/>
  <polygon points="85,35 60,30 60,40" fill="none" stroke="#4169e1" stroke-width="1" opacity="0.6"/>
  <polygon points="50,10 45,25 55,25" fill="none" stroke="#4169e1" stroke-width="1" opacity="0.6"/>
  
  <!-- Sparkle Effects -->
  <circle cx="25" cy="35" r="1" fill="#4169e1" opacity="0.8"/>
  <circle cx="75" cy="35" r="1" fill="#5a7ce8" opacity="0.8"/>
  <circle cx="50" cy="18" r="1" fill="#4169e1" opacity="0.8"/>
  <circle cx="50" cy="35" r="1" fill="#5a7ce8" opacity="0.8"/>
</svg> 